<svg width="200" height="48" viewBox="0 0 200 48" fill="none" xmlns="http://www.w3.org/2000/svg">
<rect x="0.5" y="0.5" width="199" height="47" rx="23.5" fill="#EEECDD"/>
<path d="M36.8672 26.9922C36.8672 27.625 36.7383 28.1904 36.4805 28.6885C36.2285 29.1865 35.8799 29.5996 35.4346 29.9277C34.9189 30.3145 34.3506 30.5898 33.7295 30.7539C33.1143 30.918 32.332 31 31.3828 31H25.6699V17.9131H30.75C31.8047 17.9131 32.5752 17.9482 33.0615 18.0186C33.5537 18.0889 34.04 18.2441 34.5205 18.4844C35.0186 18.7363 35.3877 19.0762 35.6279 19.5039C35.874 19.9258 35.9971 20.4092 35.9971 20.9541C35.9971 21.5869 35.8301 22.1465 35.4961 22.6328C35.1621 23.1133 34.6904 23.4883 34.0811 23.7578V23.8281C34.9365 23.998 35.6133 24.3496 36.1113 24.8828C36.6152 25.416 36.8672 26.1191 36.8672 26.9922ZM32.543 21.6133C32.543 21.3965 32.4873 21.1797 32.376 20.9629C32.2705 20.7461 32.0801 20.585 31.8047 20.4795C31.5586 20.3857 31.251 20.3359 30.8818 20.3301C30.5186 20.3184 30.0059 20.3125 29.3438 20.3125H29.0273V23.0811H29.5547C30.0879 23.0811 30.542 23.0723 30.917 23.0547C31.292 23.0371 31.5879 22.9785 31.8047 22.8789C32.1094 22.7441 32.3086 22.5713 32.4023 22.3604C32.4961 22.1436 32.543 21.8945 32.543 21.6133ZM33.3691 26.9395C33.3691 26.5234 33.2871 26.2041 33.123 25.9814C32.9648 25.7529 32.6924 25.583 32.3057 25.4717C32.042 25.3955 31.6787 25.3545 31.2158 25.3486C30.7529 25.3428 30.2695 25.3398 29.7656 25.3398H29.0273V28.6006H29.2734C30.2227 28.6006 30.9023 28.5977 31.3125 28.5918C31.7227 28.5859 32.1006 28.5098 32.4463 28.3633C32.7979 28.2168 33.0381 28.0234 33.167 27.7832C33.3018 27.5371 33.3691 27.2559 33.3691 26.9395ZM50.8418 26.2627C50.8418 27.8799 50.3496 29.1191 49.3652 29.9805C48.3809 30.8418 46.9307 31.2725 45.0146 31.2725C43.0986 31.2725 41.6484 30.8418 40.6641 29.9805C39.6855 29.1191 39.1963 27.8828 39.1963 26.2715V17.9131H42.5889V26.0781C42.5889 26.9863 42.7793 27.6631 43.1602 28.1084C43.541 28.5537 44.1592 28.7764 45.0146 28.7764C45.8584 28.7764 46.4736 28.5625 46.8604 28.1348C47.2529 27.707 47.4492 27.0215 47.4492 26.0781V17.9131H50.8418V26.2627ZM65.5195 17.9131L60.6943 25.9375V31H57.3193V26.0957L52.415 17.9131H56.2471L59.0771 22.9756L61.8105 17.9131H65.5195ZM83.9062 26.8867C83.9062 28.1758 83.3584 29.2246 82.2627 30.0332C81.1729 30.8359 79.6904 31.2373 77.8154 31.2373C76.7314 31.2373 75.7852 31.1436 74.9766 30.9561C74.1738 30.7627 73.4209 30.5195 72.7178 30.2266V27.0889H73.0869C73.7842 27.6455 74.5635 28.0732 75.4248 28.3721C76.292 28.6709 77.124 28.8203 77.9209 28.8203C78.126 28.8203 78.3955 28.8027 78.7295 28.7676C79.0635 28.7324 79.3359 28.6738 79.5469 28.5918C79.8047 28.4863 80.0156 28.3545 80.1797 28.1963C80.3496 28.0381 80.4346 27.8037 80.4346 27.4932C80.4346 27.2061 80.3115 26.96 80.0654 26.7549C79.8252 26.5439 79.4707 26.3828 79.002 26.2715C78.5098 26.1543 77.9883 26.0459 77.4375 25.9463C76.8926 25.8408 76.3799 25.709 75.8994 25.5508C74.7979 25.1934 74.0039 24.71 73.5176 24.1006C73.0371 23.4854 72.7969 22.7236 72.7969 21.8154C72.7969 20.5967 73.3418 19.6035 74.4316 18.8359C75.5273 18.0625 76.9336 17.6758 78.6504 17.6758C79.5117 17.6758 80.3613 17.7607 81.1992 17.9307C82.043 18.0947 82.7725 18.3027 83.3877 18.5547V21.5693H83.0273C82.5 21.1475 81.8525 20.7959 81.085 20.5146C80.3232 20.2275 79.5439 20.084 78.7471 20.084C78.4658 20.084 78.1846 20.1045 77.9033 20.1455C77.6279 20.1807 77.3613 20.251 77.1035 20.3564C76.875 20.4443 76.6787 20.5791 76.5146 20.7607C76.3506 20.9365 76.2686 21.1387 76.2686 21.3672C76.2686 21.7129 76.4004 21.9795 76.6641 22.167C76.9277 22.3486 77.4258 22.5156 78.1582 22.668C78.6387 22.7676 79.0986 22.8643 79.5381 22.958C79.9834 23.0518 80.4609 23.1807 80.9707 23.3447C81.9727 23.6729 82.7109 24.1211 83.1855 24.6895C83.666 25.252 83.9062 25.9844 83.9062 26.8867ZM95.6924 31H86.2266V17.9131H95.6924V20.4443H89.584V22.7031H95.2529V25.2344H89.584V28.4688H95.6924V31ZM109.008 26.8867C109.008 28.1758 108.46 29.2246 107.364 30.0332C106.274 30.8359 104.792 31.2373 102.917 31.2373C101.833 31.2373 100.887 31.1436 100.078 30.9561C99.2754 30.7627 98.5225 30.5195 97.8193 30.2266V27.0889H98.1885C98.8857 27.6455 99.665 28.0732 100.526 28.3721C101.394 28.6709 102.226 28.8203 103.022 28.8203C103.228 28.8203 103.497 28.8027 103.831 28.7676C104.165 28.7324 104.438 28.6738 104.648 28.5918C104.906 28.4863 105.117 28.3545 105.281 28.1963C105.451 28.0381 105.536 27.8037 105.536 27.4932C105.536 27.2061 105.413 26.96 105.167 26.7549C104.927 26.5439 104.572 26.3828 104.104 26.2715C103.611 26.1543 103.09 26.0459 102.539 25.9463C101.994 25.8408 101.481 25.709 101.001 25.5508C99.8994 25.1934 99.1055 24.71 98.6191 24.1006C98.1387 23.4854 97.8984 22.7236 97.8984 21.8154C97.8984 20.5967 98.4434 19.6035 99.5332 18.8359C100.629 18.0625 102.035 17.6758 103.752 17.6758C104.613 17.6758 105.463 17.7607 106.301 17.9307C107.145 18.0947 107.874 18.3027 108.489 18.5547V21.5693H108.129C107.602 21.1475 106.954 20.7959 106.187 20.5146C105.425 20.2275 104.646 20.084 103.849 20.084C103.567 20.084 103.286 20.1045 103.005 20.1455C102.729 20.1807 102.463 20.251 102.205 20.3564C101.977 20.4443 101.78 20.5791 101.616 20.7607C101.452 20.9365 101.37 21.1387 101.37 21.3672C101.37 21.7129 101.502 21.9795 101.766 22.167C102.029 22.3486 102.527 22.5156 103.26 22.668C103.74 22.7676 104.2 22.8643 104.64 22.958C105.085 23.0518 105.562 23.1807 106.072 23.3447C107.074 23.6729 107.812 24.1211 108.287 24.6895C108.768 25.252 109.008 25.9844 109.008 26.8867ZM121.805 26.8867C121.805 28.1758 121.257 29.2246 120.161 30.0332C119.071 30.8359 117.589 31.2373 115.714 31.2373C114.63 31.2373 113.684 31.1436 112.875 30.9561C112.072 30.7627 111.319 30.5195 110.616 30.2266V27.0889H110.985C111.683 27.6455 112.462 28.0732 113.323 28.3721C114.19 28.6709 115.022 28.8203 115.819 28.8203C116.024 28.8203 116.294 28.8027 116.628 28.7676C116.962 28.7324 117.234 28.6738 117.445 28.5918C117.703 28.4863 117.914 28.3545 118.078 28.1963C118.248 28.0381 118.333 27.8037 118.333 27.4932C118.333 27.2061 118.21 26.96 117.964 26.7549C117.724 26.5439 117.369 26.3828 116.9 26.2715C116.408 26.1543 115.887 26.0459 115.336 25.9463C114.791 25.8408 114.278 25.709 113.798 25.5508C112.696 25.1934 111.902 24.71 111.416 24.1006C110.936 23.4854 110.695 22.7236 110.695 21.8154C110.695 20.5967 111.24 19.6035 112.33 18.8359C113.426 18.0625 114.832 17.6758 116.549 17.6758C117.41 17.6758 118.26 17.7607 119.098 17.9307C119.941 18.0947 120.671 18.3027 121.286 18.5547V21.5693H120.926C120.398 21.1475 119.751 20.7959 118.983 20.5146C118.222 20.2275 117.442 20.084 116.646 20.084C116.364 20.084 116.083 20.1045 115.802 20.1455C115.526 20.1807 115.26 20.251 115.002 20.3564C114.773 20.4443 114.577 20.5791 114.413 20.7607C114.249 20.9365 114.167 21.1387 114.167 21.3672C114.167 21.7129 114.299 21.9795 114.562 22.167C114.826 22.3486 115.324 22.5156 116.057 22.668C116.537 22.7676 116.997 22.8643 117.437 22.958C117.882 23.0518 118.359 23.1807 118.869 23.3447C119.871 23.6729 120.609 24.1211 121.084 24.6895C121.564 25.252 121.805 25.9844 121.805 26.8867ZM131.2 31H123.536V28.6797H125.681V20.2334H123.536V17.9131H131.2V20.2334H129.056V28.6797H131.2V31ZM146.678 24.4609C146.678 26.5469 146.08 28.2051 144.885 29.4355C143.689 30.6602 142.037 31.2725 139.928 31.2725C137.824 31.2725 136.175 30.6602 134.979 29.4355C133.784 28.2051 133.187 26.5469 133.187 24.4609C133.187 22.3574 133.784 20.6963 134.979 19.4775C136.175 18.2529 137.824 17.6406 139.928 17.6406C142.025 17.6406 143.675 18.2529 144.876 19.4775C146.077 20.6963 146.678 22.3574 146.678 24.4609ZM142.204 27.7744C142.532 27.376 142.775 26.9072 142.934 26.3682C143.092 25.8232 143.171 25.1846 143.171 24.4521C143.171 23.667 143.08 22.999 142.898 22.4482C142.717 21.8975 142.479 21.4521 142.187 21.1123C141.888 20.7607 141.542 20.5059 141.149 20.3477C140.763 20.1895 140.358 20.1104 139.937 20.1104C139.509 20.1104 139.104 20.1865 138.724 20.3389C138.349 20.4912 138.003 20.7432 137.687 21.0947C137.394 21.4229 137.153 21.877 136.966 22.457C136.784 23.0312 136.693 23.6992 136.693 24.4609C136.693 25.2402 136.781 25.9053 136.957 26.4561C137.139 27.001 137.376 27.4463 137.669 27.792C137.962 28.1377 138.305 28.3926 138.697 28.5566C139.09 28.7207 139.503 28.8027 139.937 28.8027C140.37 28.8027 140.783 28.7207 141.176 28.5566C141.568 28.3867 141.911 28.126 142.204 27.7744ZM161.162 31H157.91L152.355 22.0176V31H149.262V17.9131H153.296L158.068 25.4102V17.9131H161.162V31ZM174.979 26.8867C174.979 28.1758 174.431 29.2246 173.335 30.0332C172.245 30.8359 170.763 31.2373 168.888 31.2373C167.804 31.2373 166.857 31.1436 166.049 30.9561C165.246 30.7627 164.493 30.5195 163.79 30.2266V27.0889H164.159C164.856 27.6455 165.636 28.0732 166.497 28.3721C167.364 28.6709 168.196 28.8203 168.993 28.8203C169.198 28.8203 169.468 28.8027 169.802 28.7676C170.136 28.7324 170.408 28.6738 170.619 28.5918C170.877 28.4863 171.088 28.3545 171.252 28.1963C171.422 28.0381 171.507 27.8037 171.507 27.4932C171.507 27.2061 171.384 26.96 171.138 26.7549C170.897 26.5439 170.543 26.3828 170.074 26.2715C169.582 26.1543 169.061 26.0459 168.51 25.9463C167.965 25.8408 167.452 25.709 166.972 25.5508C165.87 25.1934 165.076 24.71 164.59 24.1006C164.109 23.4854 163.869 22.7236 163.869 21.8154C163.869 20.5967 164.414 19.6035 165.504 18.8359C166.6 18.0625 168.006 17.6758 169.723 17.6758C170.584 17.6758 171.434 17.7607 172.271 17.9307C173.115 18.0947 173.845 18.3027 174.46 18.5547V21.5693H174.1C173.572 21.1475 172.925 20.7959 172.157 20.5146C171.396 20.2275 170.616 20.084 169.819 20.084C169.538 20.084 169.257 20.1045 168.976 20.1455C168.7 20.1807 168.434 20.251 168.176 20.3564C167.947 20.4443 167.751 20.5791 167.587 20.7607C167.423 20.9365 167.341 21.1387 167.341 21.3672C167.341 21.7129 167.473 21.9795 167.736 22.167C168 22.3486 168.498 22.5156 169.23 22.668C169.711 22.7676 170.171 22.8643 170.61 22.958C171.056 23.0518 171.533 23.1807 172.043 23.3447C173.045 23.6729 173.783 24.1211 174.258 24.6895C174.738 25.252 174.979 25.9844 174.979 26.8867Z" fill="#2E2F32"/>
<rect x="0.5" y="0.5" width="199" height="47" rx="23.5" stroke="#EEECDD"/>
</svg>
