<svg width="126" height="40" viewBox="0 0 126 40" fill="none" xmlns="http://www.w3.org/2000/svg">
<rect width="126" height="40" rx="20" fill="#FD402C"/>
<path d="M35.4375 22.4375C35.4375 23 35.3229 23.5026 35.0938 23.9453C34.8698 24.388 34.5599 24.7552 34.1641 25.0469C33.7057 25.3906 33.2005 25.6354 32.6484 25.7812C32.1016 25.9271 31.4062 26 30.5625 26H25.4844V14.3672H30C30.9375 14.3672 31.6224 14.3984 32.0547 14.4609C32.4922 14.5234 32.9245 14.6615 33.3516 14.875C33.7943 15.099 34.1224 15.401 34.3359 15.7812C34.5547 16.1562 34.6641 16.5859 34.6641 17.0703C34.6641 17.6328 34.5156 18.1302 34.2188 18.5625C33.9219 18.9896 33.5026 19.3229 32.9609 19.5625V19.625C33.7214 19.776 34.3229 20.0885 34.7656 20.5625C35.2135 21.0365 35.4375 21.6615 35.4375 22.4375ZM31.5938 17.6562C31.5938 17.4635 31.5443 17.2708 31.4453 17.0781C31.3516 16.8854 31.1823 16.7422 30.9375 16.6484C30.7188 16.5651 30.4453 16.5208 30.1172 16.5156C29.7943 16.5052 29.3385 16.5 28.75 16.5H28.4688V18.9609H28.9375C29.4115 18.9609 29.8151 18.9531 30.1484 18.9375C30.4818 18.9219 30.7448 18.8698 30.9375 18.7812C31.2083 18.6615 31.3854 18.5078 31.4688 18.3203C31.5521 18.1276 31.5938 17.9062 31.5938 17.6562ZM32.3281 22.3906C32.3281 22.0208 32.2552 21.737 32.1094 21.5391C31.9688 21.3359 31.7266 21.1849 31.3828 21.0859C31.1484 21.0182 30.8255 20.9818 30.4141 20.9766C30.0026 20.9714 29.5729 20.9688 29.125 20.9688H28.4688V23.8672H28.6875C29.5312 23.8672 30.1354 23.8646 30.5 23.8594C30.8646 23.8542 31.2005 23.7865 31.5078 23.6562C31.8203 23.526 32.0339 23.3542 32.1484 23.1406C32.2682 22.9219 32.3281 22.6719 32.3281 22.3906ZM46.2578 26H43.4453V25.0312C42.9245 25.4271 42.4479 25.7292 42.0156 25.9375C41.5833 26.1406 41.0677 26.2422 40.4688 26.2422C39.5 26.2422 38.7526 25.9635 38.2266 25.4062C37.7057 24.849 37.4453 24.026 37.4453 22.9375V17.2266H40.2734V21.5781C40.2734 22.0208 40.2865 22.3906 40.3125 22.6875C40.3438 22.9792 40.4115 23.2214 40.5156 23.4141C40.6146 23.6068 40.763 23.7474 40.9609 23.8359C41.1641 23.9245 41.4453 23.9688 41.8047 23.9688C42.0443 23.9688 42.3099 23.9245 42.6016 23.8359C42.8932 23.7474 43.1745 23.6172 43.4453 23.4453V17.2266H46.2578V26ZM52.8828 22.8984L54.8828 17.2266H57.7734L52.8984 29.2188H49.8516L51.2422 25.9375L47.8281 17.2266H50.7812L52.8828 22.8984ZM73.625 26H70.7969V21.6484C70.7969 21.2943 70.7786 20.9427 70.7422 20.5938C70.7057 20.2396 70.6432 19.9792 70.5547 19.8125C70.4505 19.6198 70.2969 19.4792 70.0938 19.3906C69.8958 19.3021 69.6172 19.2578 69.2578 19.2578C69.0026 19.2578 68.7422 19.2995 68.4766 19.3828C68.2161 19.4661 67.9323 19.599 67.625 19.7812V26H64.8125V17.2266H67.625V18.1953C68.125 17.8047 68.6042 17.5052 69.0625 17.2969C69.526 17.0885 70.0391 16.9844 70.6016 16.9844C71.5495 16.9844 72.2891 17.2604 72.8203 17.8125C73.3568 18.3646 73.625 19.1901 73.625 20.2891V26ZM85.1875 21.6172C85.1875 23.0599 84.7656 24.1979 83.9219 25.0312C83.0833 25.8594 81.9036 26.2734 80.3828 26.2734C78.862 26.2734 77.6797 25.8594 76.8359 25.0312C75.9974 24.1979 75.5781 23.0599 75.5781 21.6172C75.5781 20.1641 76 19.0234 76.8438 18.1953C77.6927 17.3672 78.8724 16.9531 80.3828 16.9531C81.9141 16.9531 83.0964 17.3698 83.9297 18.2031C84.7682 19.0365 85.1875 20.1745 85.1875 21.6172ZM81.7266 23.75C81.9089 23.526 82.0443 23.2578 82.1328 22.9453C82.2266 22.6276 82.2734 22.1901 82.2734 21.6328C82.2734 21.1172 82.2266 20.6849 82.1328 20.3359C82.0391 19.987 81.9089 19.7083 81.7422 19.5C81.5755 19.2865 81.375 19.1354 81.1406 19.0469C80.9062 18.9583 80.6536 18.9141 80.3828 18.9141C80.112 18.9141 79.8698 18.9505 79.6562 19.0234C79.4479 19.0964 79.2474 19.2422 79.0547 19.4609C78.8828 19.6641 78.7448 19.9427 78.6406 20.2969C78.5417 20.651 78.4922 21.0964 78.4922 21.6328C78.4922 22.112 78.5365 22.5286 78.625 22.8828C78.7135 23.2318 78.8438 23.513 79.0156 23.7266C79.1823 23.9297 79.3802 24.0781 79.6094 24.1719C79.8438 24.2656 80.1094 24.3125 80.4062 24.3125C80.6615 24.3125 80.9036 24.2708 81.1328 24.1875C81.3672 24.099 81.5651 23.9531 81.7266 23.75ZM101.195 17.2266L98.4766 26H95.4922L93.7031 20.0859L91.9453 26H88.9219L86.2266 17.2266H89.1797L90.6797 23.2734L92.5547 17.2266H95.0469L96.8281 23.2734L98.3047 17.2266H101.195Z" fill="white"/>
</svg>
