<svg width="233" height="48" viewBox="0 0 233 48" fill="none" xmlns="http://www.w3.org/2000/svg">
<rect x="0.5" y="0.5" width="232" height="47" rx="23.5" fill="#EEECDD"/>
<path d="M35.0479 20.4443H29.0273V22.8789H34.6084V25.4102H29.0273V31H25.6699V17.9131H35.0479V20.4443ZM47.291 26.0693C47.291 27.6924 46.8164 28.9727 45.8672 29.9102C44.9238 30.8418 43.5967 31.3076 41.8857 31.3076C40.1748 31.3076 38.8447 30.8418 37.8955 29.9102C36.9521 28.9727 36.4805 27.6924 36.4805 26.0693C36.4805 24.4346 36.9551 23.1514 37.9043 22.2197C38.8594 21.2881 40.1865 20.8223 41.8857 20.8223C43.6084 20.8223 44.9385 21.291 45.876 22.2285C46.8193 23.166 47.291 24.4463 47.291 26.0693ZM43.3975 28.4688C43.6025 28.2168 43.7549 27.915 43.8545 27.5635C43.96 27.2061 44.0127 26.7139 44.0127 26.0869C44.0127 25.5068 43.96 25.0205 43.8545 24.6279C43.749 24.2354 43.6025 23.9219 43.415 23.6875C43.2275 23.4473 43.002 23.2773 42.7383 23.1777C42.4746 23.0781 42.1904 23.0283 41.8857 23.0283C41.5811 23.0283 41.3086 23.0693 41.0684 23.1514C40.834 23.2334 40.6084 23.3975 40.3916 23.6436C40.1982 23.8721 40.043 24.1855 39.9258 24.584C39.8145 24.9824 39.7588 25.4834 39.7588 26.0869C39.7588 26.626 39.8086 27.0947 39.9082 27.4932C40.0078 27.8857 40.1543 28.2021 40.3477 28.4424C40.5352 28.6709 40.7578 28.8379 41.0156 28.9434C41.2793 29.0488 41.5781 29.1016 41.9121 29.1016C42.1992 29.1016 42.4717 29.0547 42.7295 28.9609C42.9932 28.8613 43.2158 28.6973 43.3975 28.4688ZM52.7227 31H49.5586V17.3242H52.7227V31ZM58.875 31H55.7109V17.3242H58.875V31ZM71.9531 26.0693C71.9531 27.6924 71.4785 28.9727 70.5293 29.9102C69.5859 30.8418 68.2588 31.3076 66.5479 31.3076C64.8369 31.3076 63.5068 30.8418 62.5576 29.9102C61.6143 28.9727 61.1426 27.6924 61.1426 26.0693C61.1426 24.4346 61.6172 23.1514 62.5664 22.2197C63.5215 21.2881 64.8486 20.8223 66.5479 20.8223C68.2705 20.8223 69.6006 21.291 70.5381 22.2285C71.4814 23.166 71.9531 24.4463 71.9531 26.0693ZM68.0596 28.4688C68.2646 28.2168 68.417 27.915 68.5166 27.5635C68.6221 27.2061 68.6748 26.7139 68.6748 26.0869C68.6748 25.5068 68.6221 25.0205 68.5166 24.6279C68.4111 24.2354 68.2646 23.9219 68.0771 23.6875C67.8896 23.4473 67.6641 23.2773 67.4004 23.1777C67.1367 23.0781 66.8525 23.0283 66.5479 23.0283C66.2432 23.0283 65.9707 23.0693 65.7305 23.1514C65.4961 23.2334 65.2705 23.3975 65.0537 23.6436C64.8604 23.8721 64.7051 24.1855 64.5879 24.584C64.4766 24.9824 64.4209 25.4834 64.4209 26.0869C64.4209 26.626 64.4707 27.0947 64.5703 27.4932C64.6699 27.8857 64.8164 28.2021 65.0098 28.4424C65.1973 28.6709 65.4199 28.8379 65.6777 28.9434C65.9414 29.0488 66.2402 29.1016 66.5742 29.1016C66.8613 29.1016 67.1338 29.0547 67.3916 28.9609C67.6553 28.8613 67.8779 28.6973 68.0596 28.4688ZM89.9619 21.1299L86.9033 31H83.5459L81.5332 24.3467L79.5557 31H76.1543L73.1221 21.1299H76.4443L78.1318 27.9326L80.2412 21.1299H83.0449L85.0488 27.9326L86.71 21.1299H89.9619ZM108.094 26.0693C108.094 27.6924 107.619 28.9727 106.67 29.9102C105.727 30.8418 104.399 31.3076 102.688 31.3076C100.978 31.3076 99.6475 30.8418 98.6982 29.9102C97.7549 28.9727 97.2832 27.6924 97.2832 26.0693C97.2832 24.4346 97.7578 23.1514 98.707 22.2197C99.6621 21.2881 100.989 20.8223 102.688 20.8223C104.411 20.8223 105.741 21.291 106.679 22.2285C107.622 23.166 108.094 24.4463 108.094 26.0693ZM104.2 28.4688C104.405 28.2168 104.558 27.915 104.657 27.5635C104.763 27.2061 104.815 26.7139 104.815 26.0869C104.815 25.5068 104.763 25.0205 104.657 24.6279C104.552 24.2354 104.405 23.9219 104.218 23.6875C104.03 23.4473 103.805 23.2773 103.541 23.1777C103.277 23.0781 102.993 23.0283 102.688 23.0283C102.384 23.0283 102.111 23.0693 101.871 23.1514C101.637 23.2334 101.411 23.3975 101.194 23.6436C101.001 23.8721 100.846 24.1855 100.729 24.584C100.617 24.9824 100.562 25.4834 100.562 26.0869C100.562 26.626 100.611 27.0947 100.711 27.4932C100.811 27.8857 100.957 28.2021 101.15 28.4424C101.338 28.6709 101.561 28.8379 101.818 28.9434C102.082 29.0488 102.381 29.1016 102.715 29.1016C103.002 29.1016 103.274 29.0547 103.532 28.9609C103.796 28.8613 104.019 28.6973 104.2 28.4688ZM120.196 31H117.032V29.9102C116.446 30.3555 115.91 30.6953 115.424 30.9297C114.938 31.1582 114.357 31.2725 113.684 31.2725C112.594 31.2725 111.753 30.959 111.161 30.332C110.575 29.7051 110.282 28.7793 110.282 27.5547V21.1299H113.464V26.0254C113.464 26.5234 113.479 26.9395 113.508 27.2734C113.543 27.6016 113.619 27.874 113.736 28.0908C113.848 28.3076 114.015 28.4658 114.237 28.5654C114.466 28.665 114.782 28.7148 115.187 28.7148C115.456 28.7148 115.755 28.665 116.083 28.5654C116.411 28.4658 116.728 28.3193 117.032 28.126V21.1299H120.196V31ZM130.348 24.1445H130.066C129.932 24.0977 129.715 24.0625 129.416 24.0391C129.117 24.0156 128.868 24.0039 128.669 24.0039C128.218 24.0039 127.819 24.0332 127.474 24.0918C127.128 24.1504 126.756 24.25 126.357 24.3906V31H123.193V21.1299H126.357V22.5801C127.055 21.9824 127.661 21.5869 128.177 21.3936C128.692 21.1943 129.167 21.0947 129.601 21.0947C129.712 21.0947 129.838 21.0977 129.979 21.1035C130.119 21.1094 130.242 21.1182 130.348 21.1299V24.1445ZM144.27 28.4248V26.3682C143.842 26.4033 143.379 26.4531 142.881 26.5176C142.383 26.5762 142.005 26.6465 141.747 26.7285C141.431 26.8281 141.188 26.9746 141.018 27.168C140.854 27.3555 140.771 27.6045 140.771 27.915C140.771 28.1201 140.789 28.2871 140.824 28.416C140.859 28.5449 140.947 28.668 141.088 28.7852C141.223 28.9023 141.384 28.9902 141.571 29.0488C141.759 29.1016 142.052 29.1279 142.45 29.1279C142.767 29.1279 143.086 29.0635 143.408 28.9346C143.736 28.8057 144.023 28.6357 144.27 28.4248ZM144.27 29.9541C144.1 30.083 143.889 30.2383 143.637 30.4199C143.385 30.6016 143.147 30.7451 142.925 30.8506C142.614 30.9912 142.292 31.0938 141.958 31.1582C141.624 31.2285 141.258 31.2637 140.859 31.2637C139.922 31.2637 139.137 30.9736 138.504 30.3936C137.871 29.8135 137.555 29.0723 137.555 28.1699C137.555 27.4492 137.716 26.8604 138.038 26.4033C138.36 25.9463 138.817 25.5859 139.409 25.3223C139.995 25.0586 140.722 24.8711 141.589 24.7598C142.456 24.6484 143.355 24.5664 144.287 24.5137V24.4609C144.287 23.916 144.064 23.541 143.619 23.3359C143.174 23.125 142.518 23.0195 141.65 23.0195C141.129 23.0195 140.572 23.1133 139.98 23.3008C139.389 23.4824 138.964 23.623 138.706 23.7227H138.416V21.3408C138.75 21.2529 139.292 21.1504 140.042 21.0332C140.798 20.9102 141.554 20.8486 142.31 20.8486C144.108 20.8486 145.406 21.127 146.203 21.6836C147.006 22.2344 147.407 23.1016 147.407 24.2852V31H144.27V29.9541ZM156.627 30.9121C156.287 31 155.927 31.0674 155.546 31.1143C155.165 31.167 154.699 31.1934 154.148 31.1934C152.918 31.1934 152.001 30.9443 151.397 30.4463C150.8 29.9482 150.501 29.0957 150.501 27.8887V23.2744H149.2V21.1299H150.501V18.3086H153.665V21.1299H156.627V23.2744H153.665V26.7725C153.665 27.1182 153.668 27.4199 153.674 27.6777C153.68 27.9355 153.727 28.167 153.814 28.3721C153.896 28.5771 154.04 28.7412 154.245 28.8643C154.456 28.9814 154.761 29.04 155.159 29.04C155.323 29.04 155.537 29.0049 155.801 28.9346C156.07 28.8643 156.258 28.7998 156.363 28.7412H156.627V30.9121ZM168.439 31H165.258V26.1045C165.258 25.7061 165.237 25.3105 165.196 24.918C165.155 24.5195 165.085 24.2266 164.985 24.0391C164.868 23.8223 164.695 23.6641 164.467 23.5645C164.244 23.4648 163.931 23.415 163.526 23.415C163.239 23.415 162.946 23.4619 162.647 23.5557C162.354 23.6494 162.035 23.7988 161.689 24.0039V31H158.525V17.3242H161.689V22.2197C162.252 21.7803 162.791 21.4434 163.307 21.209C163.828 20.9746 164.405 20.8574 165.038 20.8574C166.104 20.8574 166.937 21.168 167.534 21.7891C168.138 22.4102 168.439 23.3389 168.439 24.5752V31ZM174.521 31H171.357V17.3242H174.521V31ZM187.23 26.6494H179.988C180.035 27.4229 180.328 28.0146 180.867 28.4248C181.412 28.835 182.212 29.04 183.267 29.04C183.935 29.04 184.582 28.9199 185.209 28.6797C185.836 28.4395 186.331 28.1816 186.694 27.9062H187.046V30.4463C186.331 30.7334 185.657 30.9414 185.024 31.0703C184.392 31.1992 183.691 31.2637 182.924 31.2637C180.943 31.2637 179.426 30.8184 178.371 29.9277C177.316 29.0371 176.789 27.7686 176.789 26.1221C176.789 24.4932 177.287 23.2041 178.283 22.2549C179.285 21.2998 180.656 20.8223 182.396 20.8223C184.002 20.8223 185.209 21.2295 186.018 22.0439C186.826 22.8525 187.23 24.0186 187.23 25.542V26.6494ZM184.084 24.7949C184.066 24.1328 183.902 23.6348 183.592 23.3008C183.281 22.9668 182.798 22.7998 182.142 22.7998C181.532 22.7998 181.031 22.958 180.639 23.2744C180.246 23.5908 180.026 24.0977 179.979 24.7949H184.084ZM195.773 30.9121C195.434 31 195.073 31.0674 194.692 31.1143C194.312 31.167 193.846 31.1934 193.295 31.1934C192.064 31.1934 191.147 30.9443 190.544 30.4463C189.946 29.9482 189.647 29.0957 189.647 27.8887V23.2744H188.347V21.1299H189.647V18.3086H192.812V21.1299H195.773V23.2744H192.812V26.7725C192.812 27.1182 192.814 27.4199 192.82 27.6777C192.826 27.9355 192.873 28.167 192.961 28.3721C193.043 28.5771 193.187 28.7412 193.392 28.8643C193.603 28.9814 193.907 29.04 194.306 29.04C194.47 29.04 194.684 29.0049 194.947 28.9346C195.217 28.8643 195.404 28.7998 195.51 28.7412H195.773V30.9121ZM207.393 26.6494H200.15C200.197 27.4229 200.49 28.0146 201.029 28.4248C201.574 28.835 202.374 29.04 203.429 29.04C204.097 29.04 204.744 28.9199 205.371 28.6797C205.998 28.4395 206.493 28.1816 206.856 27.9062H207.208V30.4463C206.493 30.7334 205.819 30.9414 205.187 31.0703C204.554 31.1992 203.854 31.2637 203.086 31.2637C201.105 31.2637 199.588 30.8184 198.533 29.9277C197.479 29.0371 196.951 27.7686 196.951 26.1221C196.951 24.4932 197.449 23.2041 198.445 22.2549C199.447 21.2998 200.818 20.8223 202.559 20.8223C204.164 20.8223 205.371 21.2295 206.18 22.0439C206.988 22.8525 207.393 24.0186 207.393 25.542V26.6494ZM204.246 24.7949C204.229 24.1328 204.064 23.6348 203.754 23.3008C203.443 22.9668 202.96 22.7998 202.304 22.7998C201.694 22.7998 201.193 22.958 200.801 23.2744C200.408 23.5908 200.188 24.0977 200.142 24.7949H204.246Z" fill="#2E2F32"/>
<rect x="0.5" y="0.5" width="232" height="47" rx="23.5" stroke="#EEECDD"/>
</svg>
