<svg width="29" height="29" viewBox="0 0 29 29" fill="none" xmlns="http://www.w3.org/2000/svg">
<path d="M22.7001 0.733398H6.30008C4.85068 0.735 3.46119 1.31133 2.43642 2.33632C1.41142 3.36109 0.835078 4.75058 0.833496 6.19999V22.6C0.835098 24.0494 1.41143 25.4389 2.43642 26.4637C3.46119 27.4887 4.85068 28.065 6.30008 28.0666H22.7001C24.1495 28.0652 25.539 27.4886 26.564 26.4639C27.5887 25.4389 28.1653 24.0494 28.1667 22.6V6.19999C28.1653 4.75058 27.5887 3.36109 26.564 2.33609C25.539 1.31132 24.1495 0.734746 22.7001 0.733398ZM25.4335 22.5999C25.4326 23.3245 25.1443 24.0193 24.632 24.5318C24.1195 25.0441 23.4247 25.3323 22.7001 25.3333H6.30008C5.5755 25.3326 4.88066 25.0443 4.36817 24.5318C3.85566 24.0193 3.56738 23.3245 3.56667 22.5999V6.19987C3.56736 5.47528 3.85564 4.78045 4.36817 4.26795C4.88069 3.75545 5.5755 3.46716 6.30008 3.46646H22.7001C23.4247 3.46737 24.1195 3.75565 24.632 4.26795C25.1443 4.78045 25.4326 5.47528 25.4335 6.19987V22.5999Z" fill="#EEECDD"/>
<path d="M14.5 8.30273C12.8829 8.30273 11.3321 8.94544 10.1888 10.0889C9.04551 11.2324 8.40333 12.7832 8.40356 14.4003C8.40356 16.0174 9.04604 17.5682 10.1895 18.7115C11.333 19.8547 12.8838 20.4972 14.5009 20.497C16.118 20.497 17.6688 19.8545 18.8121 18.7112C19.9556 17.5677 20.5978 16.0169 20.5978 14.3998C20.596 12.7832 19.953 11.2334 18.8098 10.0903C17.6665 8.94719 16.1167 8.30437 14.5 8.30273ZM14.5 17.7638C13.6079 17.7635 12.7524 17.4089 12.1217 16.7781C11.4909 16.1471 11.1367 15.2914 11.1367 14.3994C11.137 13.5073 11.4914 12.6516 12.1224 12.0211C12.7532 11.3903 13.6089 11.0359 14.5009 11.0359C15.393 11.0361 16.2487 11.3905 16.8794 12.0213C17.5102 12.6521 17.8646 13.5078 17.8646 14.3998C17.8637 15.2919 17.5088 16.1469 16.878 16.7777C16.2472 17.4083 15.392 17.7629 14.4999 17.7638L14.5 17.7638Z" fill="#EEECDD"/>
<circle cx="21.8489" cy="7.28301" r="1.54717" fill="#EEECDD"/>
</svg>
