<svg width="237" height="48" viewBox="0 0 237 48" fill="none" xmlns="http://www.w3.org/2000/svg">
<rect x="0.5" y="0.5" width="236" height="47" rx="23.5" fill="#EEECDD"/>
<path d="M35.0479 20.4443H29.0273V22.8789H34.6084V25.4102H29.0273V31H25.6699V17.9131H35.0479V20.4443ZM47.291 26.0693C47.291 27.6924 46.8164 28.9727 45.8672 29.9102C44.9238 30.8418 43.5967 31.3076 41.8857 31.3076C40.1748 31.3076 38.8447 30.8418 37.8955 29.9102C36.9521 28.9727 36.4805 27.6924 36.4805 26.0693C36.4805 24.4346 36.9551 23.1514 37.9043 22.2197C38.8594 21.2881 40.1865 20.8223 41.8857 20.8223C43.6084 20.8223 44.9385 21.291 45.876 22.2285C46.8193 23.166 47.291 24.4463 47.291 26.0693ZM43.3975 28.4688C43.6025 28.2168 43.7549 27.915 43.8545 27.5635C43.96 27.2061 44.0127 26.7139 44.0127 26.0869C44.0127 25.5068 43.96 25.0205 43.8545 24.6279C43.749 24.2354 43.6025 23.9219 43.415 23.6875C43.2275 23.4473 43.002 23.2773 42.7383 23.1777C42.4746 23.0781 42.1904 23.0283 41.8857 23.0283C41.5811 23.0283 41.3086 23.0693 41.0684 23.1514C40.834 23.2334 40.6084 23.3975 40.3916 23.6436C40.1982 23.8721 40.043 24.1855 39.9258 24.584C39.8145 24.9824 39.7588 25.4834 39.7588 26.0869C39.7588 26.626 39.8086 27.0947 39.9082 27.4932C40.0078 27.8857 40.1543 28.2021 40.3477 28.4424C40.5352 28.6709 40.7578 28.8379 41.0156 28.9434C41.2793 29.0488 41.5781 29.1016 41.9121 29.1016C42.1992 29.1016 42.4717 29.0547 42.7295 28.9609C42.9932 28.8613 43.2158 28.6973 43.3975 28.4688ZM52.7227 31H49.5586V17.3242H52.7227V31ZM58.875 31H55.7109V17.3242H58.875V31ZM71.9531 26.0693C71.9531 27.6924 71.4785 28.9727 70.5293 29.9102C69.5859 30.8418 68.2588 31.3076 66.5479 31.3076C64.8369 31.3076 63.5068 30.8418 62.5576 29.9102C61.6143 28.9727 61.1426 27.6924 61.1426 26.0693C61.1426 24.4346 61.6172 23.1514 62.5664 22.2197C63.5215 21.2881 64.8486 20.8223 66.5479 20.8223C68.2705 20.8223 69.6006 21.291 70.5381 22.2285C71.4814 23.166 71.9531 24.4463 71.9531 26.0693ZM68.0596 28.4688C68.2646 28.2168 68.417 27.915 68.5166 27.5635C68.6221 27.2061 68.6748 26.7139 68.6748 26.0869C68.6748 25.5068 68.6221 25.0205 68.5166 24.6279C68.4111 24.2354 68.2646 23.9219 68.0771 23.6875C67.8896 23.4473 67.6641 23.2773 67.4004 23.1777C67.1367 23.0781 66.8525 23.0283 66.5479 23.0283C66.2432 23.0283 65.9707 23.0693 65.7305 23.1514C65.4961 23.2334 65.2705 23.3975 65.0537 23.6436C64.8604 23.8721 64.7051 24.1855 64.5879 24.584C64.4766 24.9824 64.4209 25.4834 64.4209 26.0869C64.4209 26.626 64.4707 27.0947 64.5703 27.4932C64.6699 27.8857 64.8164 28.2021 65.0098 28.4424C65.1973 28.6709 65.4199 28.8379 65.6777 28.9434C65.9414 29.0488 66.2402 29.1016 66.5742 29.1016C66.8613 29.1016 67.1338 29.0547 67.3916 28.9609C67.6553 28.8613 67.8779 28.6973 68.0596 28.4688ZM89.9619 21.1299L86.9033 31H83.5459L81.5332 24.3467L79.5557 31H76.1543L73.1221 21.1299H76.4443L78.1318 27.9326L80.2412 21.1299H83.0449L85.0488 27.9326L86.71 21.1299H89.9619ZM108.094 26.0693C108.094 27.6924 107.619 28.9727 106.67 29.9102C105.727 30.8418 104.399 31.3076 102.688 31.3076C100.978 31.3076 99.6475 30.8418 98.6982 29.9102C97.7549 28.9727 97.2832 27.6924 97.2832 26.0693C97.2832 24.4346 97.7578 23.1514 98.707 22.2197C99.6621 21.2881 100.989 20.8223 102.688 20.8223C104.411 20.8223 105.741 21.291 106.679 22.2285C107.622 23.166 108.094 24.4463 108.094 26.0693ZM104.2 28.4688C104.405 28.2168 104.558 27.915 104.657 27.5635C104.763 27.2061 104.815 26.7139 104.815 26.0869C104.815 25.5068 104.763 25.0205 104.657 24.6279C104.552 24.2354 104.405 23.9219 104.218 23.6875C104.03 23.4473 103.805 23.2773 103.541 23.1777C103.277 23.0781 102.993 23.0283 102.688 23.0283C102.384 23.0283 102.111 23.0693 101.871 23.1514C101.637 23.2334 101.411 23.3975 101.194 23.6436C101.001 23.8721 100.846 24.1855 100.729 24.584C100.617 24.9824 100.562 25.4834 100.562 26.0869C100.562 26.626 100.611 27.0947 100.711 27.4932C100.811 27.8857 100.957 28.2021 101.15 28.4424C101.338 28.6709 101.561 28.8379 101.818 28.9434C102.082 29.0488 102.381 29.1016 102.715 29.1016C103.002 29.1016 103.274 29.0547 103.532 28.9609C103.796 28.8613 104.019 28.6973 104.2 28.4688ZM120.196 31H117.032V29.9102C116.446 30.3555 115.91 30.6953 115.424 30.9297C114.938 31.1582 114.357 31.2725 113.684 31.2725C112.594 31.2725 111.753 30.959 111.161 30.332C110.575 29.7051 110.282 28.7793 110.282 27.5547V21.1299H113.464V26.0254C113.464 26.5234 113.479 26.9395 113.508 27.2734C113.543 27.6016 113.619 27.874 113.736 28.0908C113.848 28.3076 114.015 28.4658 114.237 28.5654C114.466 28.665 114.782 28.7148 115.187 28.7148C115.456 28.7148 115.755 28.665 116.083 28.5654C116.411 28.4658 116.728 28.3193 117.032 28.126V21.1299H120.196V31ZM130.348 24.1445H130.066C129.932 24.0977 129.715 24.0625 129.416 24.0391C129.117 24.0156 128.868 24.0039 128.669 24.0039C128.218 24.0039 127.819 24.0332 127.474 24.0918C127.128 24.1504 126.756 24.25 126.357 24.3906V31H123.193V21.1299H126.357V22.5801C127.055 21.9824 127.661 21.5869 128.177 21.3936C128.692 21.1943 129.167 21.0947 129.601 21.0947C129.712 21.0947 129.838 21.0977 129.979 21.1035C130.119 21.1094 130.242 21.1182 130.348 21.1299V24.1445ZM149.271 22.0439C149.271 22.6299 149.168 23.2041 148.963 23.7666C148.758 24.3232 148.465 24.792 148.084 25.1729C147.562 25.6885 146.979 26.0781 146.335 26.3418C145.696 26.6055 144.899 26.7373 143.944 26.7373H141.844V31H138.469V17.9131H144.023C144.855 17.9131 145.556 17.9863 146.124 18.1328C146.698 18.2734 147.205 18.4873 147.645 18.7744C148.172 19.1201 148.573 19.5625 148.849 20.1016C149.13 20.6406 149.271 21.2881 149.271 22.0439ZM145.781 22.123C145.781 21.7539 145.682 21.4375 145.482 21.1738C145.283 20.9043 145.052 20.7168 144.788 20.6113C144.437 20.4707 144.094 20.3945 143.76 20.3828C143.426 20.3652 142.98 20.3564 142.424 20.3564H141.844V24.2764H142.811C143.385 24.2764 143.856 24.2412 144.226 24.1709C144.601 24.1006 144.914 23.96 145.166 23.749C145.383 23.5615 145.538 23.3389 145.632 23.0811C145.731 22.8174 145.781 22.498 145.781 22.123ZM157.471 28.4248V26.3682C157.043 26.4033 156.58 26.4531 156.082 26.5176C155.584 26.5762 155.206 26.6465 154.948 26.7285C154.632 26.8281 154.389 26.9746 154.219 27.168C154.055 27.3555 153.973 27.6045 153.973 27.915C153.973 28.1201 153.99 28.2871 154.025 28.416C154.061 28.5449 154.148 28.668 154.289 28.7852C154.424 28.9023 154.585 28.9902 154.772 29.0488C154.96 29.1016 155.253 29.1279 155.651 29.1279C155.968 29.1279 156.287 29.0635 156.609 28.9346C156.938 28.8057 157.225 28.6357 157.471 28.4248ZM157.471 29.9541C157.301 30.083 157.09 30.2383 156.838 30.4199C156.586 30.6016 156.349 30.7451 156.126 30.8506C155.815 30.9912 155.493 31.0938 155.159 31.1582C154.825 31.2285 154.459 31.2637 154.061 31.2637C153.123 31.2637 152.338 30.9736 151.705 30.3936C151.072 29.8135 150.756 29.0723 150.756 28.1699C150.756 27.4492 150.917 26.8604 151.239 26.4033C151.562 25.9463 152.019 25.5859 152.61 25.3223C153.196 25.0586 153.923 24.8711 154.79 24.7598C155.657 24.6484 156.557 24.5664 157.488 24.5137V24.4609C157.488 23.916 157.266 23.541 156.82 23.3359C156.375 23.125 155.719 23.0195 154.852 23.0195C154.33 23.0195 153.773 23.1133 153.182 23.3008C152.59 23.4824 152.165 23.623 151.907 23.7227H151.617V21.3408C151.951 21.2529 152.493 21.1504 153.243 21.0332C153.999 20.9102 154.755 20.8486 155.511 20.8486C157.31 20.8486 158.607 21.127 159.404 21.6836C160.207 22.2344 160.608 23.1016 160.608 24.2852V31H157.471V29.9541ZM170.672 24.1445H170.391C170.256 24.0977 170.039 24.0625 169.74 24.0391C169.441 24.0156 169.192 24.0039 168.993 24.0039C168.542 24.0039 168.144 24.0332 167.798 24.0918C167.452 24.1504 167.08 24.25 166.682 24.3906V31H163.518V21.1299H166.682V22.5801C167.379 21.9824 167.985 21.5869 168.501 21.3936C169.017 21.1943 169.491 21.0947 169.925 21.0947C170.036 21.0947 170.162 21.0977 170.303 21.1035C170.443 21.1094 170.566 21.1182 170.672 21.1299V24.1445ZM178.775 30.9121C178.436 31 178.075 31.0674 177.694 31.1143C177.313 31.167 176.848 31.1934 176.297 31.1934C175.066 31.1934 174.149 30.9443 173.546 30.4463C172.948 29.9482 172.649 29.0957 172.649 27.8887V23.2744H171.349V21.1299H172.649V18.3086H175.813V21.1299H178.775V23.2744H175.813V26.7725C175.813 27.1182 175.816 27.4199 175.822 27.6777C175.828 27.9355 175.875 28.167 175.963 28.3721C176.045 28.5771 176.188 28.7412 176.394 28.8643C176.604 28.9814 176.909 29.04 177.308 29.04C177.472 29.04 177.686 29.0049 177.949 28.9346C178.219 28.8643 178.406 28.7998 178.512 28.7412H178.775V30.9121ZM190.588 31H187.406V26.1045C187.406 25.7061 187.386 25.3105 187.345 24.918C187.304 24.5195 187.233 24.2266 187.134 24.0391C187.017 23.8223 186.844 23.6641 186.615 23.5645C186.393 23.4648 186.079 23.415 185.675 23.415C185.388 23.415 185.095 23.4619 184.796 23.5557C184.503 23.6494 184.184 23.7988 183.838 24.0039V31H180.674V21.1299H183.838V22.2197C184.4 21.7803 184.939 21.4434 185.455 21.209C185.977 20.9746 186.554 20.8574 187.187 20.8574C188.253 20.8574 189.085 21.168 189.683 21.7891C190.286 22.4102 190.588 23.3389 190.588 24.5752V31ZM203.227 26.6494H195.984C196.031 27.4229 196.324 28.0146 196.863 28.4248C197.408 28.835 198.208 29.04 199.263 29.04C199.931 29.04 200.578 28.9199 201.205 28.6797C201.832 28.4395 202.327 28.1816 202.69 27.9062H203.042V30.4463C202.327 30.7334 201.653 30.9414 201.021 31.0703C200.388 31.1992 199.688 31.2637 198.92 31.2637C196.939 31.2637 195.422 30.8184 194.367 29.9277C193.312 29.0371 192.785 27.7686 192.785 26.1221C192.785 24.4932 193.283 23.2041 194.279 22.2549C195.281 21.2998 196.652 20.8223 198.393 20.8223C199.998 20.8223 201.205 21.2295 202.014 22.0439C202.822 22.8525 203.227 24.0186 203.227 25.542V26.6494ZM200.08 24.7949C200.062 24.1328 199.898 23.6348 199.588 23.3008C199.277 22.9668 198.794 22.7998 198.138 22.7998C197.528 22.7998 197.027 22.958 196.635 23.2744C196.242 23.5908 196.022 24.0977 195.976 24.7949H200.08ZM212.613 24.1445H212.332C212.197 24.0977 211.98 24.0625 211.682 24.0391C211.383 24.0156 211.134 24.0039 210.935 24.0039C210.483 24.0039 210.085 24.0332 209.739 24.0918C209.394 24.1504 209.021 24.25 208.623 24.3906V31H205.459V21.1299H208.623V22.5801C209.32 21.9824 209.927 21.5869 210.442 21.3936C210.958 21.1943 211.433 21.0947 211.866 21.0947C211.978 21.0947 212.104 21.0977 212.244 21.1035C212.385 21.1094 212.508 21.1182 212.613 21.1299V24.1445Z" fill="#2E2F32"/>
<rect x="0.5" y="0.5" width="236" height="47" rx="23.5" stroke="#EEECDD"/>
</svg>
