<svg width="148" height="48" viewBox="0 0 148 48" fill="none" xmlns="http://www.w3.org/2000/svg">
<rect x="0.5" y="0.5" width="147" height="47" rx="23.5" fill="#EEECDD"/>
<path d="M36.1465 26.8867C36.1465 28.1758 35.5986 29.2246 34.5029 30.0332C33.4131 30.8359 31.9307 31.2373 30.0557 31.2373C28.9717 31.2373 28.0254 31.1436 27.2168 30.9561C26.4141 30.7627 25.6611 30.5195 24.958 30.2266V27.0889H25.3271C26.0244 27.6455 26.8037 28.0732 27.665 28.3721C28.5322 28.6709 29.3643 28.8203 30.1611 28.8203C30.3662 28.8203 30.6357 28.8027 30.9697 28.7676C31.3037 28.7324 31.5762 28.6738 31.7871 28.5918C32.0449 28.4863 32.2559 28.3545 32.4199 28.1963C32.5898 28.0381 32.6748 27.8037 32.6748 27.4932C32.6748 27.2061 32.5518 26.96 32.3057 26.7549C32.0654 26.5439 31.7109 26.3828 31.2422 26.2715C30.75 26.1543 30.2285 26.0459 29.6777 25.9463C29.1328 25.8408 28.6201 25.709 28.1396 25.5508C27.0381 25.1934 26.2441 24.71 25.7578 24.1006C25.2773 23.4854 25.0371 22.7236 25.0371 21.8154C25.0371 20.5967 25.582 19.6035 26.6719 18.8359C27.7676 18.0625 29.1738 17.6758 30.8906 17.6758C31.752 17.6758 32.6016 17.7607 33.4395 17.9307C34.2832 18.0947 35.0127 18.3027 35.6279 18.5547V21.5693H35.2676C34.7402 21.1475 34.0928 20.7959 33.3252 20.5146C32.5635 20.2275 31.7842 20.084 30.9873 20.084C30.7061 20.084 30.4248 20.1045 30.1436 20.1455C29.8682 20.1807 29.6016 20.251 29.3438 20.3564C29.1152 20.4443 28.9189 20.5791 28.7549 20.7607C28.5908 20.9365 28.5088 21.1387 28.5088 21.3672C28.5088 21.7129 28.6406 21.9795 28.9043 22.167C29.168 22.3486 29.666 22.5156 30.3984 22.668C30.8789 22.7676 31.3389 22.8643 31.7783 22.958C32.2236 23.0518 32.7012 23.1807 33.2109 23.3447C34.2129 23.6729 34.9512 24.1211 35.4258 24.6895C35.9062 25.252 36.1465 25.9844 36.1465 26.8867ZM48.0117 26.6494H40.7695C40.8164 27.4229 41.1094 28.0146 41.6484 28.4248C42.1934 28.835 42.9932 29.04 44.0479 29.04C44.7158 29.04 45.3633 28.9199 45.9902 28.6797C46.6172 28.4395 47.1123 28.1816 47.4756 27.9062H47.8271V30.4463C47.1123 30.7334 46.4385 30.9414 45.8057 31.0703C45.1729 31.1992 44.4727 31.2637 43.7051 31.2637C41.7246 31.2637 40.207 30.8184 39.1523 29.9277C38.0977 29.0371 37.5703 27.7686 37.5703 26.1221C37.5703 24.4932 38.0684 23.2041 39.0645 22.2549C40.0664 21.2998 41.4375 20.8223 43.1777 20.8223C44.7832 20.8223 45.9902 21.2295 46.7988 22.0439C47.6074 22.8525 48.0117 24.0186 48.0117 25.542V26.6494ZM44.8652 24.7949C44.8477 24.1328 44.6836 23.6348 44.373 23.3008C44.0625 22.9668 43.5791 22.7998 42.9229 22.7998C42.3135 22.7998 41.8125 22.958 41.4199 23.2744C41.0273 23.5908 40.8076 24.0977 40.7607 24.7949H44.8652ZM60.1582 31H56.9766V26.1045C56.9766 25.7061 56.9561 25.3105 56.915 24.918C56.874 24.5195 56.8037 24.2266 56.7041 24.0391C56.5869 23.8223 56.4141 23.6641 56.1855 23.5645C55.9629 23.4648 55.6494 23.415 55.2451 23.415C54.958 23.415 54.665 23.4619 54.3662 23.5557C54.0732 23.6494 53.7539 23.7988 53.4082 24.0039V31H50.2441V21.1299H53.4082V22.2197C53.9707 21.7803 54.5098 21.4434 55.0254 21.209C55.5469 20.9746 56.124 20.8574 56.7568 20.8574C57.8232 20.8574 58.6553 21.168 59.2529 21.7891C59.8564 22.4102 60.1582 23.3389 60.1582 24.5752V31ZM72.6738 31H69.5098V29.9717C68.9648 30.417 68.4551 30.7451 67.9805 30.9561C67.5059 31.167 66.958 31.2725 66.3369 31.2725C65.1357 31.2725 64.1748 30.8096 63.4541 29.8838C62.7334 28.958 62.373 27.71 62.373 26.1396C62.373 25.3018 62.4932 24.5605 62.7334 23.916C62.9795 23.2656 63.3135 22.709 63.7354 22.2461C64.1338 21.8066 64.6172 21.4668 65.1855 21.2266C65.7539 20.9805 66.3223 20.8574 66.8906 20.8574C67.4824 20.8574 67.9658 20.9219 68.3408 21.0508C68.7217 21.1738 69.1113 21.332 69.5098 21.5254V17.3242H72.6738V31ZM69.5098 28.2754V23.4326C69.2871 23.3389 69.0527 23.2715 68.8066 23.2305C68.5605 23.1895 68.335 23.1689 68.1299 23.1689C67.2979 23.1689 66.6738 23.4297 66.2578 23.9512C65.8418 24.4668 65.6338 25.1846 65.6338 26.1045C65.6338 27.0713 65.8008 27.7744 66.1348 28.2139C66.4688 28.6475 67.0049 28.8643 67.7432 28.8643C68.0303 28.8643 68.335 28.8115 68.6572 28.7061C68.9795 28.5947 69.2637 28.4512 69.5098 28.2754ZM91.7285 31H88.5469V26.1045C88.5469 25.7061 88.5264 25.3105 88.4854 24.918C88.4443 24.5195 88.374 24.2266 88.2744 24.0391C88.1572 23.8223 87.9844 23.6641 87.7559 23.5645C87.5332 23.4648 87.2197 23.415 86.8154 23.415C86.5283 23.415 86.2354 23.4619 85.9365 23.5557C85.6436 23.6494 85.3242 23.7988 84.9785 24.0039V31H81.8145V21.1299H84.9785V22.2197C85.541 21.7803 86.0801 21.4434 86.5957 21.209C87.1172 20.9746 87.6943 20.8574 88.3271 20.8574C89.3936 20.8574 90.2256 21.168 90.8232 21.7891C91.4268 22.4102 91.7285 23.3389 91.7285 24.5752V31ZM104.736 26.0693C104.736 27.6924 104.262 28.9727 103.312 29.9102C102.369 30.8418 101.042 31.3076 99.3311 31.3076C97.6201 31.3076 96.29 30.8418 95.3408 29.9102C94.3975 28.9727 93.9258 27.6924 93.9258 26.0693C93.9258 24.4346 94.4004 23.1514 95.3496 22.2197C96.3047 21.2881 97.6318 20.8223 99.3311 20.8223C101.054 20.8223 102.384 21.291 103.321 22.2285C104.265 23.166 104.736 24.4463 104.736 26.0693ZM100.843 28.4688C101.048 28.2168 101.2 27.915 101.3 27.5635C101.405 27.2061 101.458 26.7139 101.458 26.0869C101.458 25.5068 101.405 25.0205 101.3 24.6279C101.194 24.2354 101.048 23.9219 100.86 23.6875C100.673 23.4473 100.447 23.2773 100.184 23.1777C99.9199 23.0781 99.6357 23.0283 99.3311 23.0283C99.0264 23.0283 98.7539 23.0693 98.5137 23.1514C98.2793 23.2334 98.0537 23.3975 97.8369 23.6436C97.6436 23.8721 97.4883 24.1855 97.3711 24.584C97.2598 24.9824 97.2041 25.4834 97.2041 26.0869C97.2041 26.626 97.2539 27.0947 97.3535 27.4932C97.4531 27.8857 97.5996 28.2021 97.793 28.4424C97.9805 28.6709 98.2031 28.8379 98.4609 28.9434C98.7246 29.0488 99.0234 29.1016 99.3574 29.1016C99.6445 29.1016 99.917 29.0547 100.175 28.9609C100.438 28.8613 100.661 28.6973 100.843 28.4688ZM122.745 21.1299L119.687 31H116.329L114.316 24.3467L112.339 31H108.938L105.905 21.1299H109.228L110.915 27.9326L113.024 21.1299H115.828L117.832 27.9326L119.493 21.1299H122.745Z" fill="#2E2F32"/>
<rect x="0.5" y="0.5" width="147" height="47" rx="23.5" stroke="#2E2F32"/>
</svg>
