<svg width="148" height="48" viewBox="0 0 148 48" fill="none" xmlns="http://www.w3.org/2000/svg">
<rect x="0.5" y="0.5" width="147" height="47" rx="23.5" fill="#EEECDD"/>
<path d="M36.1465 26.8867C36.1465 28.1758 35.5986 29.2246 34.5029 30.0332C33.4131 30.8359 31.9307 31.2373 30.0557 31.2373C28.9717 31.2373 28.0254 31.1436 27.2168 30.9561C26.4141 30.7627 25.6611 30.5195 24.958 30.2266V27.0889H25.3271C26.0244 27.6455 26.8037 28.0732 27.665 28.3721C28.5322 28.6709 29.3643 28.8203 30.1611 28.8203C30.3662 28.8203 30.6357 28.8027 30.9697 28.7676C31.3037 28.7324 31.5762 28.6738 31.7871 28.5918C32.0449 28.4863 32.2559 28.3545 32.4199 28.1963C32.5898 28.0381 32.6748 27.8037 32.6748 27.4932C32.6748 27.2061 32.5518 26.96 32.3057 26.7549C32.0654 26.5439 31.7109 26.3828 31.2422 26.2715C30.75 26.1543 30.2285 26.0459 29.6777 25.9463C29.1328 25.8408 28.6201 25.709 28.1396 25.5508C27.0381 25.1934 26.2441 24.71 25.7578 24.1006C25.2773 23.4854 25.0371 22.7236 25.0371 21.8154C25.0371 20.5967 25.582 19.6035 26.6719 18.8359C27.7676 18.0625 29.1738 17.6758 30.8906 17.6758C31.752 17.6758 32.6016 17.7607 33.4395 17.9307C34.2832 18.0947 35.0127 18.3027 35.6279 18.5547V21.5693H35.2676C34.7402 21.1475 34.0928 20.7959 33.3252 20.5146C32.5635 20.2275 31.7842 20.084 30.9873 20.084C30.7061 20.084 30.4248 20.1045 30.1436 20.1455C29.8682 20.1807 29.6016 20.251 29.3438 20.3564C29.1152 20.4443 28.9189 20.5791 28.7549 20.7607C28.5908 20.9365 28.5088 21.1387 28.5088 21.3672C28.5088 21.7129 28.6406 21.9795 28.9043 22.167C29.168 22.3486 29.666 22.5156 30.3984 22.668C30.8789 22.7676 31.3389 22.8643 31.7783 22.958C32.2236 23.0518 32.7012 23.1807 33.2109 23.3447C34.2129 23.6729 34.9512 24.1211 35.4258 24.6895C35.9062 25.252 36.1465 25.9844 36.1465 26.8867ZM48.2051 31H45.0234V26.1045C45.0234 25.7061 45.0029 25.3105 44.9619 24.918C44.9209 24.5195 44.8506 24.2266 44.751 24.0391C44.6338 23.8223 44.4609 23.6641 44.2324 23.5645C44.0098 23.4648 43.6963 23.415 43.292 23.415C43.0049 23.415 42.7119 23.4619 42.4131 23.5557C42.1201 23.6494 41.8008 23.7988 41.4551 24.0039V31H38.291V17.3242H41.4551V22.2197C42.0176 21.7803 42.5566 21.4434 43.0723 21.209C43.5938 20.9746 44.1709 20.8574 44.8037 20.8574C45.8701 20.8574 46.7021 21.168 47.2998 21.7891C47.9033 22.4102 48.2051 23.3389 48.2051 24.5752V31ZM61.2129 26.0693C61.2129 27.6924 60.7383 28.9727 59.7891 29.9102C58.8457 30.8418 57.5186 31.3076 55.8076 31.3076C54.0967 31.3076 52.7666 30.8418 51.8174 29.9102C50.874 28.9727 50.4023 27.6924 50.4023 26.0693C50.4023 24.4346 50.877 23.1514 51.8262 22.2197C52.7812 21.2881 54.1084 20.8223 55.8076 20.8223C57.5303 20.8223 58.8604 21.291 59.7979 22.2285C60.7412 23.166 61.2129 24.4463 61.2129 26.0693ZM57.3193 28.4688C57.5244 28.2168 57.6768 27.915 57.7764 27.5635C57.8818 27.2061 57.9346 26.7139 57.9346 26.0869C57.9346 25.5068 57.8818 25.0205 57.7764 24.6279C57.6709 24.2354 57.5244 23.9219 57.3369 23.6875C57.1494 23.4473 56.9238 23.2773 56.6602 23.1777C56.3965 23.0781 56.1123 23.0283 55.8076 23.0283C55.5029 23.0283 55.2305 23.0693 54.9902 23.1514C54.7559 23.2334 54.5303 23.3975 54.3135 23.6436C54.1201 23.8721 53.9648 24.1855 53.8477 24.584C53.7363 24.9824 53.6807 25.4834 53.6807 26.0869C53.6807 26.626 53.7305 27.0947 53.8301 27.4932C53.9297 27.8857 54.0762 28.2021 54.2695 28.4424C54.457 28.6709 54.6797 28.8379 54.9375 28.9434C55.2012 29.0488 55.5 29.1016 55.834 29.1016C56.1211 29.1016 56.3936 29.0547 56.6514 28.9609C56.915 28.8613 57.1377 28.6973 57.3193 28.4688ZM73.7812 25.9287C73.7812 26.7432 73.6553 27.4844 73.4033 28.1523C73.1572 28.8203 72.832 29.3711 72.4277 29.8047C72.0059 30.2617 71.5283 30.6074 70.9951 30.8418C70.4619 31.0762 69.8906 31.1934 69.2812 31.1934C68.7188 31.1934 68.2412 31.1318 67.8486 31.0088C67.4561 30.8916 67.0547 30.7246 66.6445 30.5078V34.6211H63.4805V21.1299H66.6445V22.1582C67.1309 21.7715 67.626 21.458 68.1299 21.2178C68.6396 20.9775 69.2256 20.8574 69.8877 20.8574C71.1182 20.8574 72.0732 21.3086 72.7529 22.2109C73.4385 23.1133 73.7812 24.3525 73.7812 25.9287ZM70.5205 25.9902C70.5205 25.0293 70.3564 24.332 70.0283 23.8984C69.7002 23.4648 69.1816 23.248 68.4727 23.248C68.1738 23.248 67.8662 23.2949 67.5498 23.3887C67.2334 23.4766 66.9316 23.6055 66.6445 23.7754V28.7412C66.8555 28.8232 67.0811 28.876 67.3213 28.8994C67.5615 28.9229 67.7988 28.9346 68.0332 28.9346C68.8711 28.9346 69.4951 28.6914 69.9053 28.2051C70.3154 27.7129 70.5205 26.9746 70.5205 25.9902ZM92.1328 31H88.9512V26.1045C88.9512 25.7061 88.9307 25.3105 88.8896 24.918C88.8486 24.5195 88.7783 24.2266 88.6787 24.0391C88.5615 23.8223 88.3887 23.6641 88.1602 23.5645C87.9375 23.4648 87.624 23.415 87.2197 23.415C86.9326 23.415 86.6396 23.4619 86.3408 23.5557C86.0479 23.6494 85.7285 23.7988 85.3828 24.0039V31H82.2188V21.1299H85.3828V22.2197C85.9453 21.7803 86.4844 21.4434 87 21.209C87.5215 20.9746 88.0986 20.8574 88.7314 20.8574C89.7979 20.8574 90.6299 21.168 91.2275 21.7891C91.8311 22.4102 92.1328 23.3389 92.1328 24.5752V31ZM105.141 26.0693C105.141 27.6924 104.666 28.9727 103.717 29.9102C102.773 30.8418 101.446 31.3076 99.7354 31.3076C98.0244 31.3076 96.6943 30.8418 95.7451 29.9102C94.8018 28.9727 94.3301 27.6924 94.3301 26.0693C94.3301 24.4346 94.8047 23.1514 95.7539 22.2197C96.709 21.2881 98.0361 20.8223 99.7354 20.8223C101.458 20.8223 102.788 21.291 103.726 22.2285C104.669 23.166 105.141 24.4463 105.141 26.0693ZM101.247 28.4688C101.452 28.2168 101.604 27.915 101.704 27.5635C101.81 27.2061 101.862 26.7139 101.862 26.0869C101.862 25.5068 101.81 25.0205 101.704 24.6279C101.599 24.2354 101.452 23.9219 101.265 23.6875C101.077 23.4473 100.852 23.2773 100.588 23.1777C100.324 23.0781 100.04 23.0283 99.7354 23.0283C99.4307 23.0283 99.1582 23.0693 98.918 23.1514C98.6836 23.2334 98.458 23.3975 98.2412 23.6436C98.0479 23.8721 97.8926 24.1855 97.7754 24.584C97.6641 24.9824 97.6084 25.4834 97.6084 26.0869C97.6084 26.626 97.6582 27.0947 97.7578 27.4932C97.8574 27.8857 98.0039 28.2021 98.1973 28.4424C98.3848 28.6709 98.6074 28.8379 98.8652 28.9434C99.1289 29.0488 99.4277 29.1016 99.7617 29.1016C100.049 29.1016 100.321 29.0547 100.579 28.9609C100.843 28.8613 101.065 28.6973 101.247 28.4688ZM123.149 21.1299L120.091 31H116.733L114.721 24.3467L112.743 31H109.342L106.31 21.1299H109.632L111.319 27.9326L113.429 21.1299H116.232L118.236 27.9326L119.897 21.1299H123.149Z" fill="#2E2F32"/>
<rect x="0.5" y="0.5" width="147" height="47" rx="23.5" stroke="#2E2F32"/>
</svg>
