<svg width="24" height="31" viewBox="0 0 24 31" fill="none" xmlns="http://www.w3.org/2000/svg">
<path d="M23.7116 3.48972C23.5389 3.37339 23.3663 3.37339 23.1936 3.43156C21.7548 4.07134 20.2584 3.60604 19.3951 2.4428C18.9922 1.91935 18.762 1.2214 18.762 0.58162C18.762 0.407134 18.7045 0.29081 18.5893 0.174486C18.4742 0.058162 18.3591 0 18.1865 0H12.316C11.9707 0 11.7405 0.232648 11.7405 0.58162V21.2288V21.3451C11.6254 22.392 10.8197 23.1481 9.78371 23.1481C8.6902 23.1481 7.76935 22.2175 7.76935 21.1125C7.76935 20.0655 8.51754 19.2513 9.5535 19.135C9.84126 19.0768 10.0715 18.8441 10.0715 18.5533V11.8065C10.0715 11.4576 9.84126 11.2249 9.49594 11.2249H9.38084C4.08595 11.4576 0 15.7616 0 21.1125C0 26.5797 4.37404 31 9.78404 31C14.8487 31 19.1077 27.045 19.5109 21.9852C19.5684 21.9271 19.5684 21.8107 19.5684 21.7526V10.527C20.8346 10.8178 22.1583 10.9341 23.5396 10.7015C23.8273 10.6433 24 10.4107 24 10.1199V3.95468C24 3.7802 23.8849 3.60571 23.7122 3.48939L23.7116 3.48972ZM22.8483 9.65489C21.5246 9.77121 20.3159 9.65489 19.1073 9.24775C18.9347 9.18959 18.762 9.24775 18.5893 9.30592C18.4167 9.42224 18.3591 9.59673 18.3591 9.77121V21.5199C18.3591 21.5781 18.3591 21.6363 18.3016 21.6944C18.0138 26.2311 14.2153 29.8371 9.72583 29.8371C4.94891 29.8371 1.09285 25.9402 1.09285 21.1128C1.09285 16.5762 4.43094 12.8538 8.8622 12.4463V18.088C7.53848 18.4952 6.56007 19.7166 6.56007 21.1125C6.56007 22.8573 7.9989 24.3114 9.7255 24.3114C11.2794 24.3114 12.6032 23.1481 12.8334 21.6359C12.8909 21.5778 12.8909 21.4614 12.8909 21.4033V1.16291H17.6678C17.7829 1.91901 18.0707 2.55879 18.4736 3.14041C19.452 4.47814 21.1786 5.17608 22.8476 4.76895L22.8483 9.65489Z" fill="#EEECDD"/>
</svg>
