<?xml version="1.0" encoding="UTF-8"?>
<svg id="Capa_1" data-name="Capa 1" xmlns="http://www.w3.org/2000/svg" viewBox="0 0 660.05 458.5">
  <defs>
    <style>
      .cls-1 {
        fill: #e84536;
      }
    </style>
  </defs>
  <path class="cls-1" d="m122.71,59.62V4.18c0-2.31-1.87-4.18-4.18-4.18H4.19C1.87,0,0,1.87,0,4.18v307.28c0,2.31,1.87,4.18,4.18,4.18h63.52c2.32,0,4.19-1.88,4.18-4.2l-.58-97.81h38.35c2.31,0,4.18-1.87,4.18-4.18v-52.29c0-2.31-1.87-4.18-4.18-4.18h-43.32V63.81h52.18c2.31,0,4.18-1.87,4.18-4.18Z"/>
  <path class="cls-1" d="m332.97,4.18l34.1,195.59c.35,2,2.09,3.45,4.12,3.45h176.86c2.6,0,4.58-2.35,4.12-4.92l-8.09-47.92c-.36-2-2.09-3.45-4.12-3.45h-114.6c-1.18,0-2.2-.83-2.45-1.98l-3.52-16.6c-.33-1.56.86-3.02,2.45-3.02h88.57c2.61,0,4.58-2.36,4.12-4.92l-6.74-37.57c-.36-1.99-2.09-3.45-4.12-3.45h-91.69c-1.18,0-2.2-.83-2.45-1.98l-3.52-16.52c-.33-1.56.86-3.02,2.45-3.02h116.54c2.61,0,4.58-2.36,4.12-4.92l-8.86-49.49C519.91,1.45,518.18,0,516.15,0h-179c-2.31,0-4.18,1.87-4.18,4.18Z"/>
  <path class="cls-1" d="m538.55,4.88l26.55,158.05c.34,2.01,2.08,3.49,4.13,3.49h86.64c2.31,0,4.18-1.87,4.18-4.18l-.98-38.36c0-2.31-1.87-4.18-4.18-4.18h-38.92l-2.72-15.82h34.64c2.31,0,4.18-1.87,4.18-4.18v-30.83c0-2.31-1.87-4.18-4.18-4.18h-41.28l-3.06-17.1h51.33c2.31,0,4.18-1.87,4.18-4.18V4.19C659.06,1.87,657.19,0,654.88,0h-112.21c-2.59,0-4.56,2.33-4.13,4.88Z"/>
  <path class="cls-1" d="m573.85,183.31c-2.03,0-3.76,1.45-4.12,3.45l-47.49,266.81c-.46,2.56,1.52,4.92,4.12,4.92h128.52c2.31,0,4.18-1.87,4.18-4.18v-65.42c0-2.31-1.87-4.18-4.18-4.18h-53.4l4.44-26.61h41.06c2.31,0,4.18-1.87,4.18-4.18v-57.6c0-2.31-1.87-4.18-4.18-4.18h-29.39l5.12-28.77h32.16c2.31,0,4.18-1.87,4.18-4.18v-71.68c0-2.31-1.87-4.18-4.18-4.18h-81.03Z"/>
  <path class="cls-1" d="m484.78,223.22l-26.32,158.83-24.38-158.78c-.31-2.01-1.89-3.48-3.73-3.48h-56.14c-2.35,0-4.13,2.34-3.73,4.9l42,230.34c.28,2.01,1.67,3.47,3.3,3.47h86.15c1.62,0,3.01-1.45,3.3-3.45l43.16-230.34c.41-2.56-1.37-4.92-3.73-4.92h-56.15c-1.83,0-3.4,1.44-3.72,3.43Z"/>
  <path class="cls-1" d="m4.18,332.51c-2.31,0-4.18,1.87-4.18,4.18v117.62c0,2.31,1.87,4.18,4.18,4.18h47.6c2.31,0,4.18-1.87,4.18-4.18v-51.24h0l21.54,51.24c1.36,3.53,3.03,4.18,5.34,4.18h45.1c2.31,0,4.23-1.7,5.53-4.18l21.54-51.24h0v51.24c0,2.31,1.87,4.18,4.18,4.18h47.6c2.31,0,4.18-1.87,4.18-4.18v-117.62c0-2.31-1.87-4.18-4.18-4.18h-70.42c-1.28,0-2.54.19-3.74.56-3.36,1.03-5.97,3.68-7.39,6.89l-19.76,38.22-20.22-38.82c-2.09-4.01-6.14-6.82-10.67-6.86-.04,0-.07,0-.11,0H4.18Z"/>
  <path class="cls-1" d="m345.4,277.46h-89.94c-15.31,0-27.72,12.41-27.72,27.72v125.59c0,15.31,12.41,27.72,27.72,27.72h89.94c15.31,0,27.72-12.41,27.72-27.72v-125.59c0-15.31-12.41-27.72-27.72-27.72Zm-31.52,125.4c0,7.43-6.02,13.45-13.45,13.45h0c-7.43,0-13.45-6.02-13.45-13.45v-69.76c0-7.43,6.02-13.45,13.45-13.45h0c7.43,0,13.45,6.02,13.45,13.45v69.76Z"/>
  <path class="cls-1" d="m327.09,74.67C327.09,31.39,286.98,0,256.59,0h-112.84c-2.31,0-4.18,1.87-4.18,4.18v307.28c0,2.31,1.87,4.18,4.18,4.18h63.89c2.31,0,4.18-1.87,4.18-4.18v-144.66s3.8-.18,4.97-.61c25.33,16.56,59.22,49.43,72.84,91.69.61,1.64,2.17,2.73,3.92,2.73h63.29c2.93,0,4.95-2.93,3.91-5.67-15.75-47.06-31.35-69.09-76.96-105.85,23.88-15.02,43.3-32.67,43.3-74.41Zm-84.3,26.58l-31.82,8.64v-45.96h26.84c10.49,0,18.99,8.5,18.99,18.99h0c0,8.57-5.74,16.08-14.02,18.33Z"/>
</svg>